<svg data-v-423bf9ae="" xmlns="http://www.w3.org/2000/svg" viewBox="0 0 575 90" class="iconLeftSlogan"><!----><!----><!----><g data-v-423bf9ae="" id="d4983c5b-c224-4ae0-be25-ba3128bd2921" fill="white" transform="matrix(5.424954891204834,0,0,5.424954891204834,108.8065185546875,-11.82640266418457)"><path d="M0.22 3.35L7.69 3.35L7.69 4.52L4.63 4.52L4.63 13.05L3.28 13.05L3.28 4.52L0.22 4.52L0.22 3.35ZM8.62 9.42L8.62 9.42L8.62 9.42Q8.62 8.46 8.90 7.74L8.90 7.74L8.90 7.74Q9.18 7.01 9.65 6.54L9.65 6.54L9.65 6.54Q10.11 6.06 10.71 5.82L10.71 5.82L10.71 5.82Q11.31 5.59 11.94 5.59L11.94 5.59L11.94 5.59Q13.41 5.59 14.20 6.50L14.20 6.50L14.20 6.50Q14.98 7.42 14.98 9.30L14.98 9.30L14.98 9.30Q14.98 9.38 14.98 9.51L14.98 9.51L14.98 9.51Q14.98 9.65 14.97 9.76L14.97 9.76L9.98 9.76L9.98 9.76Q10.07 10.89 10.64 11.48L10.64 11.48L10.64 11.48Q11.21 12.07 12.43 12.07L12.43 12.07L12.43 12.07Q13.12 12.07 13.59 11.95L13.59 11.95L13.59 11.95Q14.06 11.83 14.29 11.72L14.29 11.72L14.48 12.81L14.48 12.81Q14.24 12.94 13.64 13.08L13.64 13.08L13.64 13.08Q13.05 13.22 12.29 13.22L12.29 13.22L12.29 13.22Q11.34 13.22 10.65 12.93L10.65 12.93L10.65 12.93Q9.95 12.64 9.51 12.14L9.51 12.14L9.51 12.14Q9.06 11.63 8.84 10.94L8.84 10.94L8.84 10.94Q8.62 10.25 8.62 9.42ZM10.01 8.71L13.62 8.71L13.62 8.71Q13.64 7.83 13.18 7.26L13.18 7.26L13.18 7.26Q12.73 6.69 11.93 6.69L11.93 6.69L11.93 6.69Q11.48 6.69 11.14 6.87L11.14 6.87L11.14 6.87Q10.79 7.04 10.56 7.32L10.56 7.32L10.56 7.32Q10.32 7.60 10.19 7.97L10.19 7.97L10.19 7.97Q10.05 8.33 10.01 8.71L10.01 8.71ZM20.02 13.22L20.02 13.22L20.02 13.22Q19.14 13.22 18.47 12.94L18.47 12.94L18.47 12.94Q17.81 12.66 17.35 12.15L17.35 12.15L17.35 12.15Q16.90 11.65 16.67 10.96L16.67 10.96L16.67 10.96Q16.45 10.26 16.45 9.42L16.45 9.42L16.45 9.42Q16.45 8.58 16.70 7.88L16.70 7.88L16.70 7.88Q16.94 7.18 17.39 6.67L17.39 6.67L17.39 6.67Q17.84 6.16 18.49 5.87L18.49 5.87L18.49 5.87Q19.14 5.59 19.94 5.59L19.94 5.59L19.94 5.59Q20.43 5.59 20.92 5.67L20.92 5.67L20.92 5.67Q21.41 5.75 21.85 5.94L21.85 5.94L21.56 7.04L21.56 7.04Q21.27 6.90 20.88 6.82L20.88 6.82L20.88 6.82Q20.50 6.73 20.06 6.73L20.06 6.73L20.06 6.73Q18.97 6.73 18.39 7.42L18.39 7.42L18.39 7.42Q17.81 8.11 17.81 9.42L17.81 9.42L17.81 9.42Q17.81 10.01 17.94 10.50L17.94 10.50L17.94 10.50Q18.07 10.99 18.36 11.34L18.36 11.34L18.36 11.34Q18.65 11.69 19.10 11.88L19.10 11.88L19.10 11.88Q19.54 12.07 20.19 12.07L20.19 12.07L20.19 12.07Q20.71 12.07 21.13 11.97L21.13 11.97L21.13 11.97Q21.55 11.87 21.78 11.76L21.78 11.76L21.97 12.85L21.97 12.85Q21.85 12.92 21.64 12.98L21.64 12.98L21.64 12.98Q21.43 13.05 21.17 13.10L21.17 13.10L21.17 13.10Q20.90 13.15 20.60 13.18L20.60 13.18L20.60 13.18Q20.30 13.22 20.02 13.22ZM24.67 13.05L23.37 13.05L23.37 2.41L24.67 2.18L24.67 5.91L24.67 5.91Q25.03 5.77 25.45 5.69L25.45 5.69L25.45 5.69Q25.86 5.61 26.26 5.61L26.26 5.61L26.26 5.61Q27.13 5.61 27.71 5.86L27.71 5.86L27.71 5.86Q28.28 6.10 28.62 6.54L28.62 6.54L28.62 6.54Q28.97 6.99 29.11 7.60L29.11 7.60L29.11 7.60Q29.25 8.22 29.25 8.96L29.25 8.96L29.25 13.05L27.94 13.05L27.94 9.24L27.94 9.24Q27.94 8.57 27.85 8.09L27.85 8.09L27.85 8.09Q27.76 7.62 27.55 7.32L27.55 7.32L27.55 7.32Q27.34 7.03 26.99 6.89L26.99 6.89L26.99 6.89Q26.64 6.76 26.12 6.76L26.12 6.76L26.12 6.76Q25.91 6.76 25.69 6.79L25.69 6.79L25.69 6.79Q25.47 6.82 25.26 6.85L25.26 6.85L25.26 6.85Q25.06 6.89 24.90 6.93L24.90 6.93L24.90 6.93Q24.74 6.97 24.67 7L24.67 7L24.67 13.05ZM31.36 13.05L31.36 5.98L31.36 5.98Q31.81 5.87 32.55 5.74L32.55 5.74L32.55 5.74Q33.29 5.61 34.26 5.61L34.26 5.61L34.26 5.61Q35.13 5.61 35.70 5.86L35.70 5.86L35.70 5.86Q36.27 6.10 36.62 6.54L36.62 6.54L36.62 6.54Q36.96 6.99 37.10 7.60L37.10 7.60L37.10 7.60Q37.24 8.22 37.24 8.96L37.24 8.96L37.24 13.05L35.94 13.05L35.94 9.24L35.94 9.24Q35.94 8.57 35.85 8.09L35.85 8.09L35.85 8.09Q35.76 7.62 35.55 7.32L35.55 7.32L35.55 7.32Q35.34 7.03 34.99 6.89L34.99 6.89L34.99 6.89Q34.64 6.76 34.12 6.76L34.12 6.76L34.12 6.76Q33.91 6.76 33.68 6.78L33.68 6.78L33.68 6.78Q33.46 6.79 33.26 6.81L33.26 6.81L33.26 6.81Q33.05 6.83 32.89 6.86L32.89 6.86L32.89 6.86Q32.73 6.89 32.66 6.90L32.66 6.90L32.66 13.05L31.36 13.05ZM45.82 9.41L45.82 9.41L45.82 9.41Q45.82 10.28 45.57 10.98L45.57 10.98L45.57 10.98Q45.32 11.68 44.86 12.18L44.86 12.18L44.86 12.18Q44.41 12.68 43.78 12.96L43.78 12.96L43.78 12.96Q43.15 13.23 42.41 13.23L42.41 13.23L42.41 13.23Q41.66 13.23 41.03 12.96L41.03 12.96L41.03 12.96Q40.40 12.68 39.95 12.18L39.95 12.18L39.95 12.18Q39.49 11.68 39.24 10.98L39.24 10.98L39.24 10.98Q38.99 10.28 38.99 9.41L38.99 9.41L38.99 9.41Q38.99 8.55 39.24 7.85L39.24 7.85L39.24 7.85Q39.49 7.14 39.95 6.64L39.95 6.64L39.95 6.64Q40.40 6.13 41.03 5.86L41.03 5.86L41.03 5.86Q41.66 5.59 42.41 5.59L42.41 5.59L42.41 5.59Q43.15 5.59 43.78 5.86L43.78 5.86L43.78 5.86Q44.41 6.13 44.86 6.64L44.86 6.64L44.86 6.64Q45.32 7.14 45.57 7.85L45.57 7.85L45.57 7.85Q45.82 8.55 45.82 9.41ZM44.46 9.41L44.46 9.41L44.46 9.41Q44.46 8.18 43.91 7.46L43.91 7.46L43.91 7.46Q43.36 6.73 42.41 6.73L42.41 6.73L42.41 6.73Q41.45 6.73 40.90 7.46L40.90 7.46L40.90 7.46Q40.35 8.18 40.35 9.41L40.35 9.41L40.35 9.41Q40.35 10.64 40.90 11.36L40.90 11.36L40.90 11.36Q41.45 12.08 42.41 12.08L42.41 12.08L42.41 12.08Q43.36 12.08 43.91 11.36L43.91 11.36L43.91 11.36Q44.46 10.64 44.46 9.41ZM53.66 11.89L53.66 8.27L55.02 8.27L55.02 12.81L55.02 12.81Q54.85 12.87 54.54 12.94L54.54 12.94L54.54 12.94Q54.22 13.01 53.81 13.08L53.81 13.08L53.81 13.08Q53.40 13.15 52.91 13.20L52.91 13.20L52.91 13.20Q52.42 13.24 51.91 13.24L51.91 13.24L51.91 13.24Q50.89 13.24 50.05 12.91L50.05 12.91L50.05 12.91Q49.21 12.57 48.61 11.93L48.61 11.93L48.61 11.93Q48.01 11.28 47.68 10.35L47.68 10.35L47.68 10.35Q47.35 9.41 47.35 8.19L47.35 8.19L47.35 8.19Q47.35 6.97 47.72 6.03L47.72 6.03L47.72 6.03Q48.09 5.08 48.72 4.44L48.72 4.44L48.72 4.44Q49.35 3.79 50.20 3.46L50.20 3.46L50.20 3.46Q51.04 3.12 52.01 3.12L52.01 3.12L52.01 3.12Q52.67 3.12 53.18 3.21L53.18 3.21L53.18 3.21Q53.69 3.29 54.05 3.40L54.05 3.40L54.05 3.40Q54.42 3.51 54.65 3.63L54.65 3.63L54.65 3.63Q54.88 3.74 54.96 3.79L54.96 3.79L54.53 4.93L54.53 4.93Q54.12 4.66 53.45 4.49L53.45 4.49L53.45 4.49Q52.78 4.31 52.08 4.31L52.08 4.31L52.08 4.31Q51.34 4.31 50.73 4.58L50.73 4.58L50.73 4.58Q50.12 4.84 49.69 5.35L49.69 5.35L49.69 5.35Q49.27 5.85 49.03 6.57L49.03 6.57L49.03 6.57Q48.79 7.29 48.79 8.19L48.79 8.19L48.79 8.19Q48.79 9.06 48.99 9.77L48.99 9.77L48.99 9.77Q49.20 10.49 49.61 11.00L49.61 11.00L49.61 11.00Q50.02 11.51 50.63 11.79L50.63 11.79L50.63 11.79Q51.24 12.07 52.07 12.07L52.07 12.07L52.07 12.07Q52.65 12.07 53.07 12.01L53.07 12.01L53.07 12.01Q53.48 11.94 53.66 11.89L53.66 11.89ZM56.66 9.42L56.66 9.42L56.66 9.42Q56.66 8.46 56.94 7.74L56.94 7.74L56.94 7.74Q57.22 7.01 57.68 6.54L57.68 6.54L57.68 6.54Q58.14 6.06 58.74 5.82L58.74 5.82L58.74 5.82Q59.35 5.59 59.98 5.59L59.98 5.59L59.98 5.59Q61.45 5.59 62.23 6.50L62.23 6.50L62.23 6.50Q63.01 7.42 63.01 9.30L63.01 9.30L63.01 9.30Q63.01 9.38 63.01 9.51L63.01 9.51L63.01 9.51Q63.01 9.65 63 9.76L63 9.76L58.02 9.76L58.02 9.76Q58.10 10.89 58.67 11.48L58.67 11.48L58.67 11.48Q59.25 12.07 60.47 12.07L60.47 12.07L60.47 12.07Q61.15 12.07 61.62 11.95L61.62 11.95L61.62 11.95Q62.09 11.83 62.33 11.72L62.33 11.72L62.51 12.81L62.51 12.81Q62.27 12.94 61.68 13.08L61.68 13.08L61.68 13.08Q61.08 13.22 60.33 13.22L60.33 13.22L60.33 13.22Q59.37 13.22 58.68 12.93L58.68 12.93L58.68 12.93Q57.99 12.64 57.54 12.14L57.54 12.14L57.54 12.14Q57.09 11.63 56.88 10.94L56.88 10.94L56.88 10.94Q56.66 10.25 56.66 9.42ZM58.04 8.71L61.66 8.71L61.66 8.71Q61.67 7.83 61.22 7.26L61.22 7.26L61.22 7.26Q60.76 6.69 59.96 6.69L59.96 6.69L59.96 6.69Q59.51 6.69 59.17 6.87L59.17 6.87L59.17 6.87Q58.83 7.04 58.59 7.32L58.59 7.32L58.59 7.32Q58.35 7.60 58.22 7.97L58.22 7.97L58.22 7.97Q58.09 8.33 58.04 8.71L58.04 8.71ZM64.48 9.42L64.48 9.42L64.48 9.42Q64.48 8.46 64.76 7.74L64.76 7.74L64.76 7.74Q65.04 7.01 65.51 6.54L65.51 6.54L65.51 6.54Q65.97 6.06 66.57 5.82L66.57 5.82L66.57 5.82Q67.17 5.59 67.80 5.59L67.80 5.59L67.80 5.59Q69.27 5.59 70.06 6.50L70.06 6.50L70.06 6.50Q70.84 7.42 70.84 9.30L70.84 9.30L70.84 9.30Q70.84 9.38 70.84 9.51L70.84 9.51L70.84 9.51Q70.84 9.65 70.83 9.76L70.83 9.76L65.84 9.76L65.84 9.76Q65.93 10.89 66.50 11.48L66.50 11.48L66.50 11.48Q67.07 12.07 68.29 12.07L68.29 12.07L68.29 12.07Q68.98 12.07 69.45 11.95L69.45 11.95L69.45 11.95Q69.92 11.83 70.15 11.72L70.15 11.72L70.34 12.81L70.34 12.81Q70.10 12.94 69.50 13.08L69.50 13.08L69.50 13.08Q68.91 13.22 68.15 13.22L68.15 13.22L68.15 13.22Q67.20 13.22 66.51 12.93L66.51 12.93L66.51 12.93Q65.81 12.64 65.37 12.14L65.37 12.14L65.37 12.14Q64.92 11.63 64.70 10.94L64.70 10.94L64.70 10.94Q64.48 10.25 64.48 9.42ZM65.87 8.71L69.48 8.71L69.48 8.71Q69.50 7.83 69.04 7.26L69.04 7.26L69.04 7.26Q68.59 6.69 67.79 6.69L67.79 6.69L67.79 6.69Q67.34 6.69 67.00 6.87L67.00 6.87L67.00 6.87Q66.65 7.04 66.42 7.32L66.42 7.32L66.42 7.32Q66.18 7.60 66.05 7.97L66.05 7.97L66.05 7.97Q65.91 8.33 65.87 8.71L65.87 8.71ZM75.35 9.04L75.35 9.04L75.35 9.04Q75.77 9.37 76.24 9.84L76.24 9.84L76.24 9.84Q76.71 10.32 77.16 10.87L77.16 10.87L77.16 10.87Q77.62 11.42 78.02 11.99L78.02 11.99L78.02 11.99Q78.43 12.56 78.71 13.05L78.71 13.05L77.18 13.05L77.18 13.05Q76.89 12.56 76.50 12.05L76.50 12.05L76.50 12.05Q76.12 11.54 75.70 11.07L75.70 11.07L75.70 11.07Q75.28 10.60 74.84 10.21L74.84 10.21L74.84 10.21Q74.41 9.81 74.02 9.55L74.02 9.55L74.02 13.05L72.72 13.05L72.72 2.41L74.02 2.18L74.02 8.82L74.02 8.82Q74.35 8.48 74.76 8.08L74.76 8.08L74.76 8.08Q75.17 7.67 75.56 7.25L75.56 7.25L75.56 7.25Q75.95 6.83 76.30 6.45L76.30 6.45L76.30 6.45Q76.65 6.06 76.90 5.77L76.90 5.77L78.43 5.77L78.43 5.77Q78.11 6.12 77.73 6.54L77.73 6.54L77.73 6.54Q77.35 6.96 76.94 7.38L76.94 7.38L76.94 7.38Q76.54 7.81 76.13 8.24L76.13 8.24L76.13 8.24Q75.71 8.67 75.35 9.04ZM85.81 13.05L84.38 13.05L84.38 13.05Q84.22 12.74 84 12.36L84 12.36L84 12.36Q83.78 11.98 83.51 11.59L83.51 11.59L83.51 11.59Q83.24 11.19 82.96 10.79L82.96 10.79L82.96 10.79Q82.68 10.40 82.42 10.05L82.42 10.05L82.42 10.05Q82.15 10.40 81.87 10.80L81.87 10.80L81.87 10.80Q81.59 11.20 81.33 11.60L81.33 11.60L81.33 11.60Q81.07 12.00 80.85 12.38L80.85 12.38L80.85 12.38Q80.63 12.75 80.47 13.05L80.47 13.05L79.13 13.05L79.13 13.05Q79.62 12.10 80.30 11.11L80.30 11.11L80.30 11.11Q80.98 10.12 81.65 9.23L81.65 9.23L79.24 5.77L80.71 5.77L82.45 8.32L84.20 5.77L85.58 5.77L83.23 9.14L83.23 9.14Q83.90 10.05 84.61 11.07L84.61 11.07L84.61 11.07Q85.32 12.08 85.81 13.05L85.81 13.05Z"></path></g><!----><g data-v-423bf9ae="" id="b27305d9-0008-4689-b9a0-a5b01dac22a8" transform="matrix(1.1421319246292114,0,0,1.1421319246292114,-11.506597518920898,-11.506597518920898)" stroke="none" fill="white"><path d="M77.8 22.2L50 10.6 22.2 22.2 10.6 50l11.5 27.8L50 89.4l27.8-11.5L89.4 50 77.8 22.2zm9.1 26.3l-12.5-3.4v-.6c0-2-1.1-3.8-2.7-4.8L77.3 25l9.6 23.5zM45.8 60.3c-.3-2.3-1.6-4.2-3.5-5.3l5-12.1c.9.3 1.8.4 2.7.4s1.9-.1 2.7-.4l6.2 15c-.8.6-1.4 1.4-1.6 2.4H45.8zm15.4-3.1c-.2 0-.4 0-.7.1l-6.2-15c1.3-.7 2.3-1.7 3.1-2.9l6.2 3.4c-.2.6-.3 1.2-.3 1.8 0 1.9 1 3.6 2.4 4.6L62 57.3c-.3-.1-.5-.1-.8-.1zM38.7 54c-.8 0-1.6.1-2.3.4l-5.6-11.6c.9-.7 1.5-1.8 1.5-3.1v-.1l9.3-2.3c.7 2.1 2.2 3.9 4.2 4.9l-5 12c-.7-.1-1.4-.2-2.1-.2zm30.1-14.9c-1.8 0-3.3.8-4.3 2.1l-6.2-3.4c.5-1.1.7-2.3.7-3.5 0-1-.2-1.9-.5-2.8l17-7.1L70 39.2c-.4-.1-.8-.1-1.2-.1zm-27.7-3.5l-9.3 2.3c-.7-1.3-2-2.2-3.6-2.2h-.3l-3.6-11.3 17.1 7.1c-.3.9-.5 1.8-.5 2.8.1.5.1.9.2 1.3zm-15.7 6.9c.7.7 1.7 1.2 2.8 1.2.3 0 .6 0 .9-.1l5.6 11.6c-1 .6-1.8 1.5-2.4 2.5L13.6 50l11.8-7.5zM63.6 58l3.8-8.1c.5.1 1 .2 1.5.2 2.2 0 4.2-1.3 5-3.2L86 50.1 64.5 59c-.2-.4-.6-.7-.9-1zm13.1-34zm-18.9 5.9c-1.4-2.5-4-4.2-6.9-4.5V12.9l24 9.9-17.1 7.1zm-8.7-17v12.5c-3 .3-5.5 2-6.9 4.5l-17.1-7.1 24-9.9zM22.8 25.2l3.5 11c-1.2.7-2 2-2 3.4 0 .5.1.9.3 1.4l-11.2 7.1 9.4-22.9zM12.7 49.5zm.5 2.1l18.5 7.7c-.2.6-.3 1.2-.3 1.9 0 1.7.6 3.2 1.6 4.5l-9.9 10-9.9-24.1zm10.3 24.9zm.9.4l9.9-10c1.2.9 2.7 1.5 4.4 1.5.7 0 1.4-.1 2-.3l7.7 18.7-24-9.9zm17.9-9.5c1.9-1.1 3.3-3.1 3.5-5.4h11.5c.2 1 .8 1.9 1.7 2.4l-9 21.7-7.7-18.7zm18.3-2.3c.2 0 .4.1.6.1.8 0 1.5-.2 2.1-.6l12.3 12.3-24 9.9 9-21.7zm16.3 10.5L64.5 63.3c.4-.6.6-1.3.6-2.1 0-.2 0-.4-.1-.6l21.7-9-9.8 24zm10.4-26.1z"></path></g><!----><g data-v-423bf9ae="" id="47b88151-08cb-4729-be37-c67de01d81c9" fill="white" transform="matrix(2.317409038543701,0,0,2.317409038543701,109.35112762451172,56.106754302978516)"><path d="M3.96 11.69L0.73 2.80L0.28 2.80L3.99 12.95L6.93 3.79L9.87 12.95L13.58 2.80L13.13 2.80L9.90 11.69L6.93 2.45ZM25.68 9.06L20.83 9.06C20.85 8.38 21.10 7.77 21.58 7.25C22.06 6.73 22.64 6.47 23.32 6.47C24.01 6.47 24.57 6.72 25.00 7.24C25.44 7.75 25.67 8.36 25.68 9.06ZM20.80 9.48L26.11 9.48C26.12 9.43 26.12 9.38 26.12 9.32C26.12 8.33 25.86 7.53 25.35 6.94C24.83 6.34 24.15 6.05 23.32 6.05C22.47 6.05 21.77 6.36 21.21 6.99C20.65 7.61 20.37 8.41 20.37 9.38C20.37 10.33 20.66 11.13 21.25 11.76C21.84 12.39 22.53 12.71 23.32 12.71C24.56 12.71 25.48 12.13 26.08 10.96L25.72 10.74C25.18 11.76 24.39 12.28 23.35 12.28C22.66 12.28 22.07 12.01 21.57 11.47C21.08 10.92 20.82 10.26 20.80 9.48ZM49.43 2.45L45.16 12.60L45.65 12.60L46.93 9.52L51.94 9.52L53.21 12.60L53.70 12.60ZM49.43 3.50L51.74 9.07L47.12 9.07ZM64.83 6.96L65.09 6.57C64.72 6.22 64.37 6.05 64.02 6.05C63.24 6.05 62.74 6.51 62.52 7.43L62.52 6.16L62.10 6.16L62.10 12.60L62.52 12.60L62.52 8.68C62.52 8.17 62.65 7.68 62.90 7.21C63.15 6.74 63.48 6.51 63.87 6.51C64.29 6.51 64.61 6.66 64.83 6.96ZM78.23 9.06L73.39 9.06C73.41 8.38 73.66 7.77 74.14 7.25C74.62 6.73 75.20 6.47 75.88 6.47C76.56 6.47 77.12 6.72 77.56 7.24C78.00 7.75 78.22 8.36 78.23 9.06ZM73.36 9.48L78.67 9.48C78.68 9.43 78.68 9.38 78.68 9.32C78.68 8.33 78.42 7.53 77.90 6.94C77.39 6.34 76.71 6.05 75.88 6.05C75.03 6.05 74.33 6.36 73.77 6.99C73.21 7.61 72.93 8.41 72.93 9.38C72.93 10.33 73.22 11.13 73.81 11.76C74.40 12.39 75.09 12.71 75.88 12.71C77.11 12.71 78.03 12.13 78.64 10.96L78.27 10.74C77.73 11.76 76.94 12.28 75.91 12.28C75.22 12.28 74.62 12.01 74.13 11.47C73.64 10.92 73.38 10.26 73.36 9.48ZM107.45 7.63L103.39 7.63L103.39 8.11L106.97 8.11C106.89 9.32 106.49 10.32 105.78 11.09C105.07 11.87 104.14 12.26 102.97 12.26C101.68 12.26 100.64 11.82 99.85 10.94C99.05 10.06 98.66 8.98 98.66 7.70C98.66 6.40 99.06 5.32 99.87 4.45C100.68 3.57 101.71 3.14 102.97 3.14C103.72 3.14 104.41 3.31 105.05 3.65C105.69 4.00 106.20 4.47 106.58 5.05L106.97 4.75C106.54 4.11 105.98 3.61 105.29 3.24C104.61 2.87 103.84 2.69 102.97 2.69C101.62 2.69 100.48 3.17 99.58 4.13C98.67 5.09 98.21 6.28 98.21 7.70C98.21 9.12 98.67 10.31 99.58 11.27C100.48 12.23 101.62 12.71 102.97 12.71C104.34 12.71 105.43 12.22 106.24 11.23C107.05 10.25 107.45 9.05 107.45 7.63ZM121.16 9.06L116.31 9.06C116.33 8.38 116.58 7.77 117.06 7.25C117.54 6.73 118.12 6.47 118.80 6.47C119.49 6.47 120.05 6.72 120.48 7.24C120.92 7.75 121.15 8.36 121.16 9.06ZM116.28 9.48L121.59 9.48C121.60 9.43 121.60 9.38 121.60 9.32C121.60 8.33 121.34 7.53 120.83 6.94C120.31 6.34 119.63 6.05 118.80 6.05C117.95 6.05 117.25 6.36 116.69 6.99C116.13 7.61 115.85 8.41 115.85 9.38C115.85 10.33 116.14 11.13 116.73 11.76C117.32 12.39 118.01 12.71 118.80 12.71C120.04 12.71 120.96 12.13 121.56 10.96L121.20 10.74C120.66 11.76 119.87 12.28 118.83 12.28C118.14 12.28 117.55 12.01 117.05 11.47C116.56 10.92 116.30 10.26 116.28 9.48ZM135.17 9.06L130.33 9.06C130.34 8.38 130.59 7.77 131.07 7.25C131.56 6.73 132.14 6.47 132.82 6.47C133.50 6.47 134.06 6.72 134.50 7.24C134.94 7.75 135.16 8.36 135.17 9.06ZM130.30 9.48L135.60 9.48C135.61 9.43 135.62 9.38 135.62 9.32C135.62 8.33 135.36 7.53 134.84 6.94C134.32 6.34 133.65 6.05 132.82 6.05C131.97 6.05 131.26 6.36 130.70 6.99C130.14 7.61 129.86 8.41 129.86 9.38C129.86 10.33 130.16 11.13 130.75 11.76C131.33 12.39 132.02 12.71 132.82 12.71C134.05 12.71 134.97 12.13 135.58 10.96L135.21 10.74C134.67 11.76 133.88 12.28 132.85 12.28C132.16 12.28 131.56 12.01 131.07 11.47C130.57 10.92 130.32 10.26 130.30 9.48ZM144.37 1.68L144.37 12.60L144.79 12.60L144.79 8.90L148.06 12.60L148.64 12.60L145.28 8.82L148.36 6.16L147.73 6.16L144.79 8.69L144.79 1.68ZM156.76 10.50L156.34 10.58C156.45 11.16 156.70 11.66 157.10 12.08C157.50 12.50 158.00 12.71 158.62 12.71C159.19 12.71 159.66 12.56 160.02 12.24C160.38 11.93 160.57 11.50 160.57 10.96C160.57 9.99 159.98 9.34 158.80 9.00C158.29 8.85 157.89 8.68 157.61 8.47C157.33 8.26 157.19 7.98 157.19 7.63C157.19 7.28 157.32 7.00 157.58 6.79C157.83 6.58 158.18 6.48 158.62 6.48C159.33 6.48 159.85 6.86 160.17 7.63L160.55 7.45C160.23 6.51 159.58 6.05 158.61 6.05C158.07 6.05 157.63 6.19 157.26 6.47C156.90 6.75 156.72 7.14 156.72 7.64C156.72 7.90 156.76 8.12 156.86 8.31C156.95 8.50 157.10 8.66 157.30 8.80C157.50 8.93 157.69 9.04 157.87 9.12C158.05 9.20 158.30 9.29 158.61 9.39C159.12 9.57 159.50 9.78 159.74 10.01C159.98 10.24 160.10 10.57 160.10 11.00C160.10 11.38 159.97 11.68 159.71 11.92C159.45 12.16 159.08 12.28 158.61 12.28C158.08 12.28 157.66 12.09 157.34 11.71C157.02 11.33 156.82 10.93 156.76 10.50Z"></path></g></svg>